# xmcd
#
# Track frame offsets: 
#        150
#        19500
#        41644
#        62087
#        78639
#        97014
#        109061
#
# Disc length: 1730 seconds
#
# Revision: 0
# Processed by: cddbd v1.5.2PL0 Copyright (c) Steve Scherf et al.
# Submitted via: ExactAudioCopy v1.3
#
DISCID=5406c007
DTITLE=Birkett Hall - blues take one
DYEAR=1900
DGENRE=Blues
TTITLE0=Ho boy - 100 man crew
TTITLE1=I'd rather go blind
TTITLE2=Diamondcutter and Boiled owl
TTITLE3=First the fall
TTITLE4=Summertime
TTITLE5=Baby please don't go
TTITLE6=Diamondcutter (studio version)
EXTD=
EXTT0=
EXTT1=
EXTT2=
EXTT3=
EXTT4=
EXTT5=
EXTT6=
PLAYORDER=
